# xmcd CD database file
#
# Track frame offsets:
#	150
#	15489
#	28990
#	44751
#	61694
#	75710
#	88650
#	103931
#	117525
#	131812
#	146553
#	159640
#	174747
#	189538
#	203057
#	218106
#	231948
#	244059
#	257437
#	271375
#	283795
#	295471
#
# Disc length: 4120 seconds
#
# Revision: 0
# Processed by: cddbd v1.5.1PL0 Copyright (c) Steve Scherf et al.
# Submitted via: CDex 1.51
#
DISCID=54101616
DTITLE=Billie Holiday - Viva!Jazz Diva!
DYEAR=2004
DGENRE=Jazz
TTITLE0=Tenderly
TTITLE1=Moonglow
TTITLE2=Blue Moon
TTITLE3=Lady Sings The Blues
TTITLE4=Crazy He Calls Me
TTITLE5=Them There Eyes
TTITLE6=Ain't Nobody's Business If I Do
TTITLE7=There is No Greater Love
TTITLE8=Good Morning Heartache
TTITLE9=What Is This Thing Called Love?
TTITLE10=That Old Devil Called Love
TTITLE11=Lover, Come Back To Me
TTITLE12=He's Funny That Way
TTITLE13=Mandy Is Two
TTITLE14=Love Me Or Leave Me
TTITLE15=Time On My Hands
TTITLE16=What is This Going To Get Us?
TTITLE17=You're just A No Account
TTITLE18=The Man I Love
TTITLE19=Dream Of Life
TTITLE20=Say It With A Kiss
TTITLE21=My Man
EXTD=YEAR: 2004
EXTT0=
EXTT1=
EXTT2=
EXTT3=
EXTT4=
EXTT5=
EXTT6=
EXTT7=
EXTT8=
EXTT9=
EXTT10=
EXTT11=
EXTT12=
EXTT13=
EXTT14=
EXTT15=
EXTT16=
EXTT17=
EXTT18=
EXTT19=
EXTT20=
EXTT21=
PLAYORDER=
